# xmcd CD database file
#
# Track frame offsets:
#	187
#	17840
#	29965
#	63810
#	91935
#	111320
#	136242
#	163892
#
# Disc length: 2581 seconds
#
# Revision: 2
# Processed by: cddbd v1.5.1PL2 Copyright (c) Steve Scherf et al.
# Submitted via: CDex 1.51
#
DISCID=6b0a1308
DTITLE=Taj Mahal - Happy Just To Be Like I Am
DYEAR=1991
DGENRE=Blues
TTITLE0=Happy Just To Be Like I Am
TTITLE1=Chevrolet
TTITLE2=Stealin'
TTITLE3=Eighteen Hammers
TTITLE4=Tomorrow May Not Be Your Day
TTITLE5=Oh Susanna
TTITLE6=West Indian Revelation
TTITLE7=Black Spirit Boogie
EXTD=YEAR: 1991
EXTT0=Taj Mahal
EXTT1=E. and L. Young - Taj Mahal
EXTT2=Gus Cannon - Adapted and Arranged by Taj Mahal
EXTT3=Taj Mahal
EXTT4=Taj Mahal
EXTT5=Traditional - Adapted and Arranged by Taj Mahal
EXTT6=aka West Indian Reservation\nTaj Mahal
EXTT7=Taj Mahal
PLAYORDER=
